<svg width="1088" height="1088" viewBox="0 0 1088 1088" fill="none" xmlns="http://www.w3.org/2000/svg">
<circle cx="544" cy="544" r="544" fill="white"/>
<circle cx="544" cy="544" r="513.5" stroke="#317F2F" stroke-width="9"/>
<path fill-rule="evenodd" clip-rule="evenodd" d="M776.265 495.891C779.544 500.188 781.671 502.932 782.646 504.123L804.792 504.122H945.871V522.499H930.94V633.142L907.203 622.422V563.464C901.588 566.909 895.654 571.886 889.401 578.395C883.275 584.776 878.426 591.093 874.853 597.346L858.964 584.329C859.475 581.011 862.091 576.544 866.813 570.929C853.796 562.251 843.842 561.294 836.951 568.058C831.591 573.928 831.527 583.053 836.759 595.431C842.119 607.81 850.223 618.338 861.07 627.016L855.902 633.525C845.692 624.592 835.611 613.936 825.657 601.557C815.703 589.051 810.343 579.926 809.577 574.183C809.067 570.227 811.172 565.569 815.894 560.21C820.616 554.722 826.04 550.256 832.165 546.81C838.291 543.364 843.076 542.216 846.522 543.364C852.392 545.406 861.134 552.553 872.747 564.804C877.979 559.827 883.722 555.488 889.975 551.787C896.228 548.086 901.971 545.853 907.203 545.087V522.499L809.664 522.499H795.307V633.333L771.571 622.614V589.689H731.946C731.946 596.197 731.053 601.685 729.266 606.151C727.607 610.618 725.502 613.808 722.949 615.722C720.525 617.509 717.845 618.721 714.909 619.36C711.974 619.87 709.422 619.934 707.253 619.551C705.083 619.168 703.36 618.53 702.084 617.637C693.789 612.022 687.025 606.087 681.793 599.834C680.517 598.303 679.688 596.325 679.305 593.9C678.922 591.475 679.113 588.859 679.879 586.052C680.645 583.244 681.985 580.628 683.899 578.203C685.941 575.651 689.067 573.673 693.279 572.269C697.49 570.738 702.467 570.1 708.21 570.355V522.499L475.487 522.499V529.752C478.637 531.518 483.21 535.354 489.205 541.258C497.628 549.425 503.307 555.679 506.242 560.017C507.263 561.549 507.773 566.717 507.773 575.523C507.773 584.201 507.582 594.155 507.199 605.385C506.944 616.615 506.88 624.208 507.008 628.164L483.271 622.613L483.463 612.85C473.126 623.187 464.703 628.356 458.195 628.356C452.069 628.228 444.285 622.422 434.841 610.936C425.397 599.451 420.676 591.219 420.676 586.242C420.676 582.286 423.356 578.649 428.715 575.331C434.075 572.013 440.584 569.461 448.241 567.674C456.025 565.76 462.916 564.293 468.914 563.272C474.912 562.251 480.017 561.549 484.228 561.166L484.42 555.998C484.547 549.872 481.293 546.554 474.657 546.044C468.531 545.661 455.642 548.404 435.989 554.275H435.798L435.607 554.466H435.415H435.224L435.032 554.658H434.841H434.65L434.458 554.849H434.267H434.075L433.884 555.04H433.692H433.501H433.31L433.118 555.232H432.927H432.735L432.544 555.423H432.352L422.016 538.004C430.949 535.707 440.839 533.537 451.686 531.495C455.675 530.753 459.124 530.155 462.033 529.699V522.499L409.637 522.499L406.838 532.763C406.357 535.646 397.176 546.967 390.138 547.766C377.759 544.959 369.592 543.81 365.636 544.321C359.383 545.087 354.469 548.149 350.896 553.509C347.323 558.741 346.047 563.782 347.068 568.632C347.323 569.78 350.258 569.653 355.873 568.249C361.488 566.845 367.614 565.441 374.25 564.037C380.886 562.506 385.161 562.251 387.075 563.272C395.881 567.866 401.815 573.928 404.878 581.457C407.94 588.986 408.259 596.197 405.835 603.088C403.538 609.852 398.752 615.722 391.478 620.699C384.204 625.676 375.462 628.164 365.253 628.164C356.83 628.164 348.982 625.867 341.708 621.273C334.561 616.551 326.139 609.532 316.44 600.217L319.886 593.708C328.563 600.217 337.752 604.619 347.451 606.916C357.149 609.086 366.146 608.193 374.441 604.236C382.864 600.28 388.479 593.006 391.287 582.414C391.414 581.904 390.84 581.712 389.564 581.84C388.16 581.967 384.65 582.797 379.035 584.328C361.297 589.05 350.003 590.454 345.153 588.54L343.431 587.583C336.412 582.223 330.733 576.352 326.394 569.972C323.204 565.633 321.864 561.039 322.374 556.189C323.012 551.34 324.671 546.937 327.351 542.981C330.031 538.897 334.051 535.579 339.411 533.027C344.771 530.347 350.641 529.007 357.022 529.007C358.936 529.007 361.616 529.39 365.061 530.156C368.635 530.921 373.612 532.261 379.993 534.175C386.501 535.962 390.585 537.047 392.244 537.43C394.386 534.112 398.958 526.613 400.111 523.153L400.111 523.153C400.177 522.957 400.25 522.738 400.329 522.499L315.157 522.499V504.122L774.317 504.123C771.451 500.213 767.889 496.129 763.631 491.871C759.165 487.277 754.953 483.959 750.997 481.917C742.702 477.451 730.898 478.152 715.584 484.023L701.993 468.709C708.501 466.667 715.967 465.199 724.389 464.306C732.684 463.285 738.682 463.094 742.383 463.732C744.936 464.37 747.679 465.646 750.614 467.56C753.422 469.475 756.485 472.282 759.803 475.983C763.121 479.556 765.801 482.555 767.843 484.98C769.757 487.277 772.564 490.914 776.265 495.891ZM285.276 522.673C279.032 519.735 275.274 512.349 272.162 506.232C272.03 505.973 271.9 505.716 271.77 505.462C272.025 503.42 273.939 500.804 277.513 497.613C281.086 494.423 283.957 492.573 286.127 492.062C292.635 494.997 297.589 498.289 300.651 504.415C298.482 509.902 292.55 518.972 285.276 522.673ZM297.804 536.472V628.164L273.876 622.804V531.113L297.804 536.472ZM556.811 525.346L555.369 544.321C566.727 533.729 576.681 528.688 585.231 529.198C589.315 529.454 596.461 534.558 606.671 544.512C617.008 554.339 622.495 561.039 623.133 564.612C623.643 567.93 623.899 589.114 623.899 628.164L600.162 622.805C600.928 579.032 600.609 555.87 599.205 553.318C596.908 548.979 593.08 547.703 587.72 549.489C582.487 551.148 577 554.211 571.257 558.678C565.642 563.144 560.346 568.376 555.369 574.374V628.164L530.484 622.805L531.926 525.346L556.811 525.346ZM441.924 603.471C443.072 605.257 445.242 606.406 448.432 606.916C451.622 607.427 456.408 606.597 462.789 604.428C469.297 602.131 476.316 598.175 483.845 592.559L484.037 575.714C450.346 585.541 436.309 594.793 441.924 603.471ZM170.182 564.037L169.991 502.973L143.574 495.125V597.536L143 598.302L143.574 598.493V622.613L170.374 628.164L170.182 600.599L196.599 567.483L232.969 622.613L257.854 628.164L207.701 553.509L249.623 500.676L224.738 495.125L170.182 564.037ZM731.946 570.929L771.571 570.738V522.499H731.946V570.929ZM708.018 588.923C704.062 588.413 700.872 588.859 698.447 590.263C696.022 591.667 694.746 593.326 694.619 595.24C694.619 597.154 695.129 598.941 696.15 600.6C697.298 601.493 698.766 602.131 700.553 602.514C702.339 602.769 703.998 601.685 705.53 599.26C707.189 596.835 708.018 593.39 708.018 588.923Z" fill="#317F2F"/>
<path d="M218.159 282.972L216.09 285.519C215.374 286.401 215.001 287.161 214.971 287.798C214.941 288.435 215.316 289.141 216.097 289.915C217.759 291.604 219.821 293.635 222.284 296.006C224.742 298.317 226.804 300.181 228.47 301.599L240.421 311.101L240.121 312.171L233.238 315.343C229.176 311.337 226.176 308.426 224.237 306.611C223.657 308.326 222.969 309.674 222.173 310.654C220.184 313.103 216.707 315.584 211.741 318.096C211.836 319.447 211.851 320.73 211.785 321.944C216.967 321.768 221.952 321.067 226.742 319.84L227.655 320.617L227.618 326.466C218.28 327.357 209.392 326.893 200.955 325.073L199.843 322.139C200.68 320.974 201.285 320.163 201.656 319.706C202.399 318.792 203.176 317.934 203.988 317.134C203.56 313.458 202.578 310.965 201.039 309.657C200.206 308.948 199.377 308.602 198.551 308.618C197.726 308.633 197.021 309 196.438 309.719L189.794 317.9C188.067 317.424 186.694 316.947 185.675 316.467L185.433 315.764L213.559 281.13L214.134 281.123L217.701 282.335L218.159 282.972ZM217.066 300.43C214.738 298.56 212.065 296.48 209.049 294.19L200.774 304.379C203.534 304.85 205.764 305.807 207.462 307.252C209.289 308.806 210.529 311.048 211.184 313.978C212.948 312.939 214.335 311.8 215.342 310.559C217.491 307.913 218.065 304.537 217.066 300.43Z" fill="black"/>
<path d="M242.014 272.574C240.818 273.758 240.109 274.874 239.885 275.924C239.633 276.943 239.882 277.85 240.634 278.645C241.183 279.226 241.926 279.644 242.862 279.901C243.619 278.619 244.625 277.357 245.881 276.114C247.555 274.457 249.355 273.238 251.279 272.458C253.204 271.677 255.031 271.407 256.762 271.646C258.494 271.826 259.924 272.512 261.051 273.704C261.831 274.53 262.386 275.607 262.717 276.937C263.048 278.267 263.155 279.758 263.039 281.411L256.399 282.835L255.569 282.325C255.708 279.288 255.431 277.402 254.738 276.668C254.42 276.332 254.039 276.235 253.596 276.378C253.153 276.461 252.618 276.814 251.99 277.435C250.884 278.53 250.054 279.795 249.501 281.23C248.977 282.636 248.778 284.017 248.902 285.373C249.057 286.7 249.553 287.807 250.391 288.694C251.431 289.794 252.879 290.225 254.736 289.985C256.622 289.715 258.725 288.818 261.044 287.291C263.392 285.796 265.764 283.774 268.159 281.226L269.036 281.511L271.559 286.293C267.984 289.062 264.362 291.139 260.692 292.522C257.053 293.876 253.706 294.437 250.652 294.205C247.627 293.944 245.219 292.866 243.427 290.97C241.376 288.799 240.713 286.26 241.437 283.353C239.761 283.355 238.236 283.119 236.862 282.645C235.489 282.11 234.354 281.369 233.458 280.421C232.274 279.167 231.855 277.836 232.202 276.428C232.549 275.019 233.589 273.456 235.324 271.74L241.33 265.972L238.207 262.85L224.393 276.523C222.757 275.894 221.444 275.27 220.454 274.652L220.29 273.927L243.881 250.576L244.454 250.631L247.823 252.267L248.163 252.995L244.62 256.502C244.172 256.946 243.945 257.348 243.938 257.709C243.904 258.04 244.103 258.434 244.536 258.893L249.557 264.665L249.497 265.612L242.014 272.574Z" fill="black"/>
<path d="M270.256 234.218L267.746 236.331C266.878 237.063 266.369 237.739 266.22 238.359C266.071 238.98 266.307 239.743 266.928 240.65C268.243 242.621 269.888 245.003 271.863 247.794C273.843 250.525 275.518 252.743 276.889 254.448L286.845 266.024L286.349 267.019L278.992 268.843C274.282 261.978 270.595 256.889 267.932 253.578C265.744 250.857 262.835 247.506 259.203 243.526L255.052 247.022C253.576 246.395 252.317 245.668 251.275 244.842L251.169 244.106L257.54 238.74C254.82 237.237 252.097 236.534 249.369 236.632C246.647 236.67 244.369 237.461 242.534 239.005C241.569 239.818 241.016 240.641 240.876 241.474C240.736 242.307 240.943 243.067 241.497 243.756C242.077 244.477 242.872 244.962 243.882 245.212L244.014 245.678L242.636 247.992C241.173 247.85 239.834 247.493 238.619 246.922C237.377 246.318 236.401 245.573 235.689 244.688C234.74 243.508 234.365 242.202 234.563 240.77C234.729 239.366 235.568 238.026 237.08 236.753C238.915 235.208 241.232 234.164 244.033 233.62C246.775 233.07 249.646 233.017 252.646 233.459C255.647 233.902 258.372 234.741 260.823 235.976L266.084 231.545L266.65 231.646L269.927 233.506L270.256 234.218Z" fill="black"/>
<path d="M332.976 191.992C334.724 192.631 336.016 193.705 336.852 195.213C337.525 196.428 337.847 197.748 337.82 199.174C337.772 200.564 337.362 201.993 336.589 203.463C339.052 203.395 341.242 203.876 343.157 204.904C345.089 205.874 346.575 207.298 347.615 209.174C349.021 211.714 349.299 214.3 348.45 216.932C347.6 219.565 345.774 221.694 342.972 223.32C339.624 225.262 335.976 225.75 332.026 224.783C328.113 223.795 324.122 221.321 320.053 217.36L319.863 216.887L321.996 213.315L322.725 213.33C325.628 216.314 328.335 218.293 330.846 219.268C333.337 220.205 335.565 220.104 337.53 218.964C339.204 217.993 340.269 216.573 340.724 214.704C341.216 212.814 340.972 210.986 339.994 209.219C339.423 208.189 338.702 207.537 337.83 207.265C336.938 206.956 336.036 207.066 335.127 207.594C334.654 207.868 334.026 208.427 333.243 209.27C332.496 210.092 331.644 211.073 330.688 212.211L325.631 208.289L325.543 207.61C328.086 204.822 329.695 202.648 330.37 201.09C331.025 199.494 330.985 198.034 330.252 196.709C329.803 195.899 329.259 195.437 328.618 195.322C327.994 195.15 327.226 195.327 326.317 195.855L311.088 204.691C309.74 203.819 308.622 202.887 307.736 201.894L307.758 201.152L337.124 184.115L337.611 184.343L340.578 186.706L340.727 187.495L332.976 191.992Z" fill="black"/>
<path d="M384.573 167.204L381.578 168.545C380.541 169.01 379.866 169.519 379.555 170.073C379.243 170.628 379.263 171.425 379.616 172.465C380.35 174.717 381.291 177.453 382.438 180.673C383.608 183.836 384.622 186.424 385.482 188.435L391.945 202.271L391.197 203.09L383.605 202.826C380.923 194.947 378.747 189.054 377.077 185.147C375.705 181.936 373.807 177.924 371.383 173.11L364.99 175.972C364.107 176.367 363.564 176.864 363.362 177.461C363.144 178.02 363.213 178.772 363.572 179.718L368.196 191.82C369.288 194.695 370.082 197.197 370.58 199.324L368.838 201.349C365.994 201.009 363.514 200.506 361.4 199.84C359.307 199.118 357.368 198.165 355.581 196.983L355.568 194.224L361.023 191.574C359.364 187.8 357.48 184.035 355.371 180.278L348.575 183.321C347.322 182.316 346.304 181.273 345.523 180.194L345.621 179.459L381.272 163.497L381.792 163.749L384.448 166.431L384.573 167.204Z" fill="black"/>
<path d="M411.849 157.832L408.747 158.902C407.673 159.272 406.957 159.72 406.598 160.244C406.239 160.768 406.191 161.564 406.454 162.63C406.992 164.936 407.694 167.742 408.561 171.047C409.455 174.299 410.244 176.964 410.928 179.041L416.182 193.382L415.366 194.131L407.817 193.197C405.822 185.119 404.159 179.063 402.83 175.027C401.738 171.71 400.191 167.549 398.188 162.544L393.058 164.314C391.894 163.202 390.97 162.075 390.283 160.932L390.444 160.21L408.877 153.851L409.374 154.147L411.791 157.051L411.849 157.832Z" fill="black"/>
<path d="M489.716 139.218L486.505 139.898C485.394 140.133 484.629 140.488 484.21 140.964C483.791 141.44 483.649 142.222 483.783 143.312C484.044 145.665 484.409 148.533 484.878 151.917C485.38 155.25 485.848 157.989 486.281 160.134L489.799 174.998L488.899 175.64L481.507 173.786C480.483 165.532 479.55 159.322 478.709 155.158C478.017 151.735 476.974 147.419 475.578 142.211L467.922 143.831C466.811 144.066 466.046 144.422 465.627 144.897C465.208 145.373 465.066 146.156 465.2 147.245C465.461 149.598 465.826 152.466 466.295 155.85C466.797 159.184 467.265 161.923 467.698 164.067L471.217 178.932L470.316 179.574L462.924 177.72C462.103 171.53 461.5 167.164 461.115 164.622C460.26 165.276 459.194 165.738 457.919 166.008C456.881 166.185 455.312 166.066 453.211 165.65C453.947 166.742 454.443 167.926 454.702 169.205C455.252 171.926 454.73 174.337 453.137 176.437C451.577 178.488 449.275 179.835 446.229 180.48C442.484 181.273 438.965 180.641 435.675 178.586C432.384 176.53 429.411 173.29 426.757 168.863L426.732 168.417L429.592 166.006L430.21 166.197C434.328 173.195 438.445 176.258 442.56 175.387C444.536 174.969 446.045 173.94 447.087 172.3C448.129 170.661 448.446 168.83 448.038 166.81C447.796 165.614 447.312 164.706 446.586 164.086C445.901 163.457 445.126 163.234 444.262 163.417C443.686 163.538 442.933 163.848 442.003 164.346C441.115 164.835 439.758 165.66 437.932 166.82L434.413 162.147L434.548 161.538C437.731 159.875 439.951 158.223 441.207 156.581C442.463 154.939 442.925 153.294 442.591 151.644C442.433 150.861 442.131 150.322 441.686 150.03C441.232 149.696 440.593 149.616 439.77 149.79C437.63 150.243 434.815 152.667 431.325 157.06L430.659 157.266L425.41 152.636C427.093 150.56 428.761 148.938 430.414 147.772C432.067 146.605 433.84 145.821 435.733 145.42C437.708 145.002 439.603 145.031 441.416 145.507C443.27 145.975 444.841 146.846 446.128 148.122C447.457 149.389 448.313 150.97 448.697 152.867C449.188 155.3 448.712 157.616 447.268 159.813C449.766 161.133 451.962 161.593 453.855 161.192C455.172 160.914 456.278 160.228 457.174 159.135C458.11 158.034 458.773 156.539 459.164 154.651C458.557 152.07 457.834 149.235 456.995 146.144L451.686 147.268C450.661 146.023 449.876 144.792 449.33 143.574L449.575 142.877L487.235 134.906L487.693 135.26L489.751 138.437L489.716 139.218ZM461.037 126.003C463.753 125.428 466.439 125.655 469.093 126.684C471.747 127.713 474 129.408 475.85 131.769L481.537 138.885L476.536 139.944L471.678 133.426C470.794 132.237 469.919 131.411 469.053 130.95C468.179 130.447 467.228 130.304 466.199 130.522C465.458 130.679 464.569 131.06 463.533 131.667C462.538 132.264 461.235 133.142 459.623 134.3L455.657 128.69L455.705 127.97C457.366 127.059 459.144 126.404 461.037 126.003Z" fill="black"/>
<path d="M604.431 141.098L601.162 140.814C600.03 140.716 599.197 140.834 598.663 141.167C598.129 141.501 597.774 142.209 597.6 143.292C597.196 145.622 596.748 148.475 596.256 151.853C595.811 155.193 595.497 157.953 595.316 160.133L594.557 175.395L593.514 175.748L586.938 171.82C587.827 166.196 588.444 162.069 588.788 159.439C587.06 159.922 585.567 160.109 584.309 160C581.166 159.727 577.132 158.237 572.206 155.528C571.166 156.367 570.134 157.101 569.111 157.73C572.266 161.931 575.733 165.674 579.514 168.958L579.414 170.153L574.648 173.413C568.495 166.164 563.704 158.527 560.275 150.502L562.009 147.929C563.441 147.968 564.45 148.014 565.037 148.065C566.21 148.167 567.358 148.33 568.479 148.554C571.213 146.131 572.663 143.913 572.83 141.901C572.921 140.811 572.719 139.928 572.227 139.251C571.734 138.575 571.027 138.197 570.105 138.117L559.606 137.205C558.987 135.504 558.576 134.096 558.373 132.981L558.802 132.385L603.25 136.245L603.591 136.718L604.682 140.36L604.431 141.098ZM589.634 150.011C589.797 147.027 589.93 143.639 590.034 139.848L576.957 138.712C578.181 141.268 578.7 143.656 578.516 145.878C578.317 148.268 577.22 150.559 575.223 152.75C577.092 153.63 578.822 154.139 580.415 154.278C583.81 154.573 586.883 153.15 589.634 150.011Z" fill="black"/>
<path d="M625.997 155.192C624.347 154.862 623.034 154.899 622.057 155.304C621.088 155.667 620.5 156.386 620.295 157.461C620.145 158.246 620.238 159.101 620.575 160.027C622.048 159.936 623.652 160.064 625.384 160.411C627.694 160.874 629.723 161.688 631.47 162.853C633.217 164.019 634.497 165.391 635.308 166.969C636.169 168.514 636.445 170.093 636.137 171.704C635.923 172.82 635.376 173.89 634.495 174.915C633.613 175.94 632.472 176.869 631.07 177.704L626.065 172.969L625.995 171.989C628.528 170.394 629.889 169.101 630.079 168.109C630.166 167.655 630.023 167.283 629.65 166.994C629.326 166.671 628.731 166.423 627.865 166.25C626.338 165.944 624.835 165.965 623.356 166.312C621.917 166.667 620.686 167.279 619.664 168.146C618.682 169.022 618.077 170.059 617.848 171.258C617.563 172.745 618.056 174.196 619.328 175.609C620.641 177.03 622.586 178.278 625.165 179.353C627.735 180.468 630.744 181.307 634.192 181.869L634.471 182.762L632.075 187.559C627.764 186.137 623.985 184.286 620.738 182.005C617.532 179.732 615.136 177.257 613.55 174.58C612.005 171.91 611.477 169.295 611.967 166.733C612.529 163.799 614.193 161.816 616.961 160.783C615.986 159.386 615.291 157.981 614.876 156.568C614.51 155.122 614.45 153.758 614.695 152.477C615.019 150.783 615.851 149.684 617.189 149.18C618.528 148.676 620.393 148.664 622.786 149.143L630.93 150.904L631.636 146.54L612.579 142.722C612.137 141.003 611.878 139.556 611.803 138.383L612.293 137.837L644.839 144.359L645.127 144.867L645.762 148.598L645.372 149.292L640.484 148.313C639.866 148.189 639.409 148.226 639.114 148.425C638.827 148.582 638.624 148.97 638.505 149.59L636.761 157.027L635.962 157.511L625.997 155.192Z" fill="black"/>
<path d="M672.875 157.183L669.721 156.278C668.629 155.964 667.79 155.92 667.205 156.146C666.62 156.372 666.142 157.001 665.772 158.032C664.947 160.246 663.982 162.968 662.879 166.196C661.828 169.395 661.012 172.05 660.434 174.16L656.881 189.027L655.794 189.174L650.067 184.05C652.865 176.232 654.826 170.273 655.949 166.176C656.873 162.808 657.884 158.481 658.985 153.195L653.768 151.697C653.419 150.109 653.275 148.645 653.337 147.306L653.867 146.802L661.874 149.101C661.509 145.976 660.498 143.301 658.84 141.074C657.234 138.818 655.279 137.36 652.974 136.698C651.761 136.35 650.778 136.352 650.027 136.706C649.276 137.059 648.784 137.661 648.55 138.513C648.305 139.406 648.375 140.345 648.759 141.331L648.46 141.705L645.801 141.86C645.068 140.555 644.58 139.234 644.336 137.894C644.104 136.515 644.138 135.277 644.438 134.182C644.839 132.721 645.672 131.669 646.939 131.026C648.165 130.372 649.729 130.317 651.629 130.863C653.934 131.525 656.116 132.873 658.175 134.909C660.205 136.892 661.91 139.264 663.291 142.024C664.671 144.783 665.574 147.537 665.998 150.285L672.61 152.183L672.857 152.714L673.257 156.505L672.875 157.183Z" fill="black"/>
<path d="M751.35 190.658C750.342 190.135 749.529 189.927 748.913 190.033C748.297 190.14 747.709 190.664 747.148 191.605C745.56 194.24 744.551 195.944 744.121 196.716C746.829 196.368 749.079 196.66 750.871 197.59C752.663 198.521 754.147 200.026 755.323 202.105C756.536 204.204 757.244 206.468 757.449 208.897C757.672 211.287 757.316 213.425 756.382 215.31C755.317 217.458 753.524 219.134 751.002 220.337C748.537 221.521 745.811 222.096 742.823 222.062L742.263 221.629L740.837 214.988L741.286 214.225C744.161 214.012 746.645 213.358 748.737 212.264C750.847 211.133 752.332 209.7 753.192 207.966C753.659 207.024 753.799 206.267 753.613 205.696C753.445 205.088 752.932 204.561 752.073 204.115C750.654 203.378 748.908 203.111 746.836 203.315C744.782 203.481 742.373 203.984 739.609 204.824L738.824 206.407L732.489 220.321L731.397 220.252L726.778 214.086L730.982 206.885C728.386 207.575 726.155 207.435 724.288 206.466C722.159 205.361 720.386 203.729 718.968 201.571C717.587 199.432 716.766 197.063 716.506 194.463C716.283 191.883 716.751 189.424 717.909 187.087C719.217 184.449 721.057 182.821 723.429 182.204C725.8 181.587 728.293 181.957 730.906 183.314C732.549 184.167 734.033 185.341 735.358 186.834C736.702 188.29 737.813 189.981 738.689 191.905C739.493 190.19 740.409 188.058 741.437 185.511L720.603 174.694C720.566 173.064 720.706 171.596 721.024 170.292L721.641 169.901L769.582 194.793L769.721 195.363L769.384 199.169L768.824 199.731L751.35 190.658ZM723.114 200.596C724.383 201.255 725.998 201.406 727.959 201.05C729.957 200.713 732.431 199.983 735.382 198.861L735.97 197.674L737.148 195.299C735.935 192.631 734.339 190.784 732.36 189.756C730.456 188.768 728.589 188.651 726.759 189.407C724.929 190.163 723.425 191.729 722.248 194.103C720.659 197.307 720.948 199.471 723.114 200.596Z" fill="black"/>
<path d="M809.393 228.072L806.697 226.2C805.764 225.553 804.986 225.243 804.362 225.27C803.738 225.298 803.089 225.744 802.416 226.608C800.941 228.451 799.177 230.734 797.121 233.454C795.124 236.163 793.521 238.43 792.312 240.253L784.29 253.271L783.216 253.063L779.414 246.353C781.921 243.178 784.337 239.991 786.66 236.791C783.792 234.646 780.526 232.303 776.863 229.76L772.753 235.047L769.896 234.447C768.066 229.746 767.357 225.03 767.769 220.298L769.541 218.994C770.891 219.47 772.603 220.351 774.677 221.638C777.536 217.324 780.036 213.172 782.177 209.18L775.853 204.789C776.091 203.06 776.414 201.621 776.823 200.471L777.483 200.161L810.712 223.227L810.779 223.811L809.967 227.548L809.393 228.072ZM790.58 231.218C792.881 227.746 795.212 223.963 797.574 219.867L790.99 215.297C790.057 214.649 789.255 214.374 788.585 214.472C787.949 214.594 787.3 215.116 786.638 216.039L780.086 225.239C782.724 227.121 785.932 229.552 789.709 232.533L790.58 231.218Z" fill="black"/>
<path d="M830.458 245.975L827.937 243.874C827.064 243.147 826.316 242.77 825.693 242.743C825.069 242.716 824.385 243.104 823.639 243.906C822.011 245.615 820.055 247.736 817.772 250.268C815.547 252.794 813.754 254.913 812.392 256.625L803.273 268.899L802.222 268.598L799.019 261.578C804.664 255.496 808.809 250.793 811.454 247.467C813.628 244.735 816.262 241.154 819.356 236.724L815.186 233.25C815.495 231.646 815.942 230.239 816.528 229.03L817.212 228.779L832.193 241.261L832.208 241.849L831.075 245.503L830.458 245.975Z" fill="black"/>
<path d="M886.801 303.064L884.553 300.674C883.775 299.847 883.078 299.382 882.462 299.28C881.846 299.178 881.12 299.48 880.283 300.187C878.461 301.687 876.264 303.556 873.692 305.794C871.179 308.033 869.143 309.921 867.585 311.456L857.052 322.541L856.045 322.116L853.715 314.758C860.052 309.401 864.733 305.232 867.76 302.25C870.248 299.8 873.295 296.562 876.9 292.538L871.539 286.838C870.761 286.011 870.064 285.546 869.448 285.444C868.833 285.342 868.106 285.644 867.269 286.35C865.447 287.851 863.25 289.72 860.678 291.958C858.165 294.197 856.13 296.085 854.571 297.62L844.038 308.705L843.032 308.28L840.702 300.922C845.425 296.859 848.745 293.973 850.659 292.264C849.667 291.884 848.723 291.219 847.83 290.269C847.139 289.473 846.416 288.06 845.661 286.029C845.138 287.253 844.412 288.323 843.483 289.238C841.505 291.186 839.224 292.046 836.64 291.816C834.116 291.587 831.787 290.339 829.654 288.071C827.031 285.283 825.713 281.917 825.7 277.974C825.687 274.032 826.828 269.72 829.122 265.038L829.48 264.774L832.987 265.925L833.152 266.56C829.483 273.893 829.09 279.092 831.972 282.157C833.356 283.628 835.003 284.366 836.915 284.373C838.826 284.379 840.516 283.659 841.984 282.212C842.853 281.356 843.356 280.448 843.492 279.487C843.657 278.557 843.436 277.771 842.831 277.127C842.428 276.698 841.775 276.219 840.874 275.69C840.001 275.192 838.603 274.473 836.68 273.534L838.727 267.975L839.304 267.76C842.357 269.594 844.896 270.606 846.922 270.795C848.947 270.984 850.559 270.488 851.758 269.307C852.328 268.746 852.618 268.195 852.628 267.653C852.668 267.082 852.4 266.49 851.824 265.877C850.325 264.284 846.832 263.179 841.344 262.563L840.824 262.101L841.928 255.08C844.539 255.401 846.763 255.955 848.601 256.742C850.439 257.53 852.021 258.628 853.346 260.038C854.73 261.509 855.699 263.152 856.252 264.969C856.834 266.815 856.932 268.638 856.545 270.436C856.187 272.265 855.318 273.859 853.939 275.217C852.171 276.959 849.994 277.805 847.407 277.756C847.617 280.619 848.385 282.755 849.711 284.165C850.633 285.146 851.784 285.724 853.162 285.901C854.57 286.109 856.163 285.868 857.94 285.18C859.771 283.258 861.753 281.099 863.886 278.702L860.168 274.749C860.668 273.193 861.282 271.851 862.009 270.721L862.718 270.554L889.092 298.594L889.036 299.18L887.47 302.671L886.801 303.064ZM882.775 271.252C884.678 273.275 885.896 275.706 886.43 278.545C886.964 281.384 886.733 284.239 885.738 287.109L882.792 295.855L879.29 292.132L882.172 284.422C882.698 283.018 882.927 281.819 882.858 280.824C882.818 279.8 882.439 278.905 881.718 278.139C881.199 277.587 880.416 277.031 879.368 276.469C878.349 275.938 876.935 275.294 875.126 274.537L877.719 268.086L878.343 267.737C879.972 268.671 881.45 269.843 882.775 271.252Z" fill="black"/>
<path d="M239.044 794.819L236.859 792.186C236.102 791.275 235.404 790.743 234.764 790.59C234.124 790.437 233.336 790.69 232.402 791.351C230.371 792.75 227.917 794.499 225.041 796.597C222.227 798.702 219.942 800.482 218.186 801.938L206.262 812.505L205.235 811.989L203.339 804.245C208.179 800.803 211.705 798.251 213.916 796.588C212.289 795.658 211.055 794.686 210.215 793.674C208.113 791.142 206.265 787.062 204.671 781.432C203.283 781.271 201.98 781.041 200.762 780.74C199.946 786.146 199.701 791.448 200.027 796.648L199.064 797.446L193.142 796.287C194.029 786.435 196.204 777.31 199.667 768.913L202.854 768.322C203.874 769.414 204.58 770.196 204.973 770.669C205.757 771.614 206.477 772.584 207.132 773.58C210.941 773.841 213.656 773.3 215.277 771.956C216.155 771.228 216.666 770.435 216.808 769.576C216.95 768.718 216.713 767.917 216.097 767.174L209.078 758.719C209.891 757.019 210.639 755.688 211.321 754.723L212.079 754.607L241.793 790.404L241.691 791.002L239.778 794.467L239.044 794.819ZM221.558 790.34C223.9 788.285 226.52 785.913 229.42 783.225L220.678 772.693C219.672 775.465 218.274 777.592 216.484 779.076C214.559 780.672 212.048 781.528 208.952 781.644C209.666 783.673 210.556 785.328 211.621 786.611C213.89 789.345 217.203 790.588 221.558 790.34Z" fill="black"/>
<path d="M246.619 815.899C245.358 814.678 244.183 813.968 243.094 813.768C242.035 813.536 241.109 813.83 240.315 814.649C239.735 815.247 239.328 816.044 239.096 817.041C240.442 817.795 241.777 818.813 243.101 820.094C244.865 821.803 246.183 823.659 247.052 825.661C247.921 827.663 248.262 829.58 248.074 831.413C247.947 833.245 247.289 834.775 246.098 836.003C245.273 836.853 244.181 837.475 242.822 837.869C241.462 838.262 239.929 838.426 238.221 838.36L236.529 831.409L237.027 830.517C240.162 830.561 242.096 830.205 242.829 829.449C243.165 829.102 243.252 828.698 243.089 828.235C242.989 827.772 242.608 827.219 241.946 826.578C240.78 825.449 239.448 824.618 237.95 824.083C236.483 823.579 235.053 823.415 233.659 823.592C232.297 823.8 231.173 824.36 230.287 825.273C229.188 826.407 228.793 827.949 229.103 829.897C229.445 831.877 230.441 834.063 232.093 836.456C233.714 838.88 235.878 841.312 238.585 843.75L238.32 844.685L233.477 847.506C230.502 843.831 228.239 840.083 226.69 836.262C225.171 832.471 224.48 828.962 224.615 825.735C224.782 822.538 225.812 819.963 227.706 818.011C229.874 815.775 232.468 814.99 235.489 815.655C235.43 813.888 235.622 812.273 236.065 810.808C236.569 809.343 237.295 808.122 238.242 807.146C239.494 805.854 240.851 805.368 242.315 805.686C243.779 806.004 245.424 807.048 247.252 808.818L253.401 814.955L256.513 811.556L241.953 797.458C242.546 795.712 243.145 794.307 243.748 793.243L244.49 793.045L269.355 817.122L269.318 817.728L267.746 821.334L267.007 821.718L263.273 818.102C262.8 817.644 262.377 817.418 262.005 817.424C261.663 817.399 261.263 817.622 260.805 818.094L255.026 823.581L254.048 823.55L246.619 815.899Z" fill="black"/>
<path d="M287.431 838.466L284.79 836.291C283.876 835.537 283.09 835.146 282.432 835.116C281.775 835.085 281.049 835.482 280.256 836.306C278.523 838.062 276.441 840.24 274.011 842.842C271.642 845.437 269.731 847.615 268.28 849.374L258.552 861.992L257.446 861.678L254.13 854.427C260.137 848.179 264.551 843.347 267.371 839.929C269.688 837.12 272.498 833.439 275.801 828.885L271.433 825.286C271.773 823.634 272.257 822.185 272.885 820.941L273.609 820.684L280.313 826.208C281.291 823.092 281.458 820.132 280.814 817.328C280.232 814.518 278.976 812.318 277.046 810.728C276.031 809.891 275.087 809.483 274.217 809.505C273.346 809.526 272.617 809.892 272.031 810.603C271.417 811.347 271.085 812.267 271.034 813.362L270.589 813.592L267.971 812.629C267.822 811.086 267.916 809.628 268.252 808.256C268.615 806.851 269.174 805.691 269.927 804.777C270.933 803.559 272.179 802.91 273.668 802.829C275.123 802.72 276.646 803.321 278.237 804.632C280.167 806.222 281.687 808.412 282.797 811.203C283.901 813.931 284.529 816.892 284.68 820.087C284.832 823.281 284.527 826.269 283.766 829.053L289.302 833.614L289.313 834.22L288.086 837.983L287.431 838.466Z" fill="black"/>
<path d="M346.177 876.875C346.546 878.8 346.286 880.544 345.397 882.107C344.682 883.366 343.685 884.364 342.408 885.102C341.152 885.801 339.667 886.194 337.953 886.28C339.33 888.474 340.075 890.714 340.189 892.998C340.363 895.266 339.897 897.372 338.792 899.317C337.296 901.949 335.155 903.583 332.37 904.222C329.585 904.86 326.723 904.345 323.786 902.678C320.276 900.685 317.894 897.642 316.638 893.55C315.42 889.478 315.477 884.542 316.807 878.739L317.125 878.314L321.427 878.336L321.804 879.004C320.715 883.228 320.41 886.737 320.89 889.532C321.392 892.289 322.672 894.252 324.733 895.421C326.487 896.418 328.314 896.622 330.212 896.035C332.148 895.47 333.637 894.272 334.677 892.441C335.285 891.374 335.475 890.372 335.25 889.437C335.046 888.464 334.468 887.707 333.514 887.165C333.018 886.884 332.187 886.614 331.022 886.356C329.895 886.119 328.572 885.873 327.053 885.615L327.821 878.939L328.375 878.497C332.203 879.308 334.988 879.603 336.729 879.38C338.492 879.12 339.763 878.304 340.544 876.931C341.021 876.092 341.139 875.352 340.898 874.71C340.717 874.053 340.149 873.453 339.196 872.911L323.23 863.847C323.281 862.161 323.509 860.651 323.914 859.317L324.582 858.94L355.368 876.418L355.427 876.981L354.922 880.932L354.303 881.488L346.177 876.875Z" fill="black"/>
<path d="M395.712 900.013L392.578 898.639C391.493 898.164 390.63 898.001 389.989 898.151C389.349 898.301 388.759 898.881 388.22 899.89C387.032 902.052 385.623 904.715 383.994 907.881C382.423 911.024 381.179 913.64 380.262 915.729L374.344 930.522L373.195 930.521L368.027 924.448C372.103 916.799 375.032 910.946 376.812 906.889C378.276 903.554 379.975 899.246 381.91 893.964L375.221 891.032C374.297 890.627 373.537 890.557 372.941 890.823C372.363 891.048 371.842 891.634 371.379 892.581L365.475 904.722C364.068 907.601 362.733 909.986 361.473 911.876L358.707 911.957C356.953 909.512 355.581 907.234 354.591 905.124C353.659 902.991 353.009 900.815 352.643 898.594L354.725 896.633L360.59 898.988C362.278 895.034 363.8 890.911 365.156 886.62L358.044 883.503C357.921 881.821 357.991 880.295 358.257 878.927L358.883 878.482L396.189 894.833L396.365 895.413L396.21 899.369L395.712 900.013Z" fill="black"/>
<path d="M420.728 908.254L417.486 907.159C416.364 906.78 415.49 906.693 414.865 906.898C414.24 907.104 413.703 907.733 413.254 908.785C412.259 911.042 411.088 913.818 409.741 917.114C408.45 920.382 407.439 923.097 406.708 925.257L402.103 940.51L400.958 940.609L395.281 935.01C398.674 927.034 401.081 920.948 402.501 916.751C403.668 913.302 404.985 908.862 406.452 903.431L401.09 901.619C400.82 899.954 400.758 898.428 400.903 897.041L401.488 896.544L420.751 903.053L420.977 903.615L421.168 907.569L420.728 908.254Z" fill="black"/>
<path d="M495.691 925.644L492.341 924.948C491.181 924.708 490.303 924.727 489.707 925.006C489.112 925.286 488.655 925.975 488.336 927.074C487.622 929.434 486.795 932.332 485.857 935.766C484.97 939.167 484.295 941.983 483.831 944.217L481.104 959.914L479.979 960.151L473.667 955.279C476.071 946.951 477.723 940.619 478.626 936.281C479.367 932.716 480.137 928.149 480.937 922.58L472.948 920.921C471.788 920.681 470.91 920.7 470.315 920.979C469.719 921.259 469.262 921.948 468.944 923.047C468.229 925.408 467.402 928.305 466.464 931.739C465.578 935.14 464.902 937.956 464.438 940.19L461.711 955.887L460.587 956.124L454.274 951.252C456.025 944.984 457.238 940.554 457.912 937.961C456.825 938.228 455.617 938.224 454.285 937.947C453.22 937.681 451.768 936.909 449.928 935.631C450.184 936.983 450.174 938.325 449.897 939.657C449.307 942.492 447.82 944.58 445.435 945.921C443.102 947.229 440.347 947.553 437.168 946.893C433.259 946.081 430.152 944.002 427.846 940.656C425.54 937.31 424.024 932.963 423.299 927.615L423.457 927.177L427.183 926.069L427.695 926.512C428.767 934.933 431.45 939.59 435.746 940.482C437.807 940.91 439.673 940.558 441.342 939.426C443.011 938.294 444.065 936.676 444.502 934.571C444.761 933.326 444.67 932.254 444.23 931.356C443.832 930.467 443.182 929.929 442.28 929.742C441.679 929.617 440.832 929.598 439.738 929.684C438.688 929.78 437.052 930 434.829 930.345L433.377 924.398L433.756 923.872C437.483 923.615 440.284 922.965 442.159 921.921C444.034 920.876 445.151 919.495 445.508 917.777C445.677 916.961 445.609 916.32 445.303 915.853C445.006 915.343 444.428 914.999 443.569 914.821C441.335 914.357 437.648 915.495 432.508 918.236L431.786 918.154L428.662 911.524C431.123 910.243 433.384 909.39 435.444 908.967C437.503 908.543 439.521 908.536 441.497 908.947C443.558 909.375 445.359 910.197 446.899 911.413C448.481 912.637 449.627 914.13 450.336 915.89C451.088 917.659 451.259 919.531 450.848 921.507C450.321 924.041 448.916 926.057 446.634 927.554C448.483 929.865 450.396 931.225 452.371 931.636C453.746 931.921 455.085 931.729 456.39 931.059C457.737 930.397 458.985 929.245 460.133 927.602C460.61 924.878 461.08 921.862 461.544 918.553L456.003 917.403C455.534 915.782 455.287 914.275 455.263 912.881L455.784 912.317L495.085 920.478L495.378 921.009L496.045 924.911L495.691 925.644ZM473.668 900.976C476.502 901.565 478.979 902.908 481.097 905.005C483.214 907.103 484.675 909.669 485.478 912.703L488.002 921.897L482.783 920.813L480.807 912.54C480.448 911.031 479.95 909.875 479.31 909.07C478.68 908.222 477.828 907.687 476.754 907.464C475.981 907.304 474.975 907.296 473.735 907.442C472.537 907.597 470.93 907.89 468.914 908.323L467.419 901.292L467.759 900.623C469.722 900.448 471.692 900.566 473.668 900.976Z" fill="black"/>
<path d="M602.712 923.357L599.302 923.643C598.122 923.742 597.286 924.01 596.794 924.447C596.303 924.885 596.061 925.675 596.069 926.819C596.056 929.286 596.089 932.298 596.168 935.858C596.287 939.369 596.442 942.262 596.633 944.535L598.49 960.359L597.479 960.906L590.04 958.031C589.982 952.092 589.902 947.741 589.802 944.976C588.109 945.778 586.606 946.234 585.295 946.344C582.016 946.619 577.611 945.8 572.079 943.887C571.155 944.933 570.221 945.87 569.278 946.697C573.248 950.458 577.459 953.693 581.913 956.401L582.018 957.647L577.682 961.84C570.103 955.477 563.858 948.473 558.946 940.828L560.283 937.877C561.762 937.665 562.807 937.533 563.419 937.482C564.643 937.379 565.851 937.344 567.042 937.376C569.434 934.402 570.542 931.866 570.365 929.768C570.27 928.631 569.91 927.759 569.287 927.151C568.664 926.543 567.871 926.279 566.909 926.36L555.959 927.278C555.029 925.639 554.363 924.264 553.962 923.153L554.3 922.465L600.659 918.576L601.091 919.002L602.842 922.553L602.712 923.357ZM589.041 935.135C588.693 932.038 588.245 928.532 587.696 924.616L574.057 925.76C575.756 928.171 576.703 930.535 576.898 932.852C577.107 935.343 576.374 937.892 574.7 940.498C576.774 941.072 578.641 941.29 580.302 941.15C583.843 940.853 586.756 938.848 589.041 935.135Z" fill="black"/>
<path d="M624.38 929.191C622.657 929.526 621.403 930.083 620.616 930.862C619.821 931.598 619.533 932.525 619.751 933.645C619.91 934.463 620.332 935.252 621.017 936.013C622.405 935.34 624.004 934.828 625.812 934.476C628.224 934.006 630.5 933.988 632.64 934.42C634.78 934.853 636.548 935.67 637.945 936.873C639.376 938.025 640.256 939.44 640.583 941.12C640.81 942.282 640.696 943.533 640.242 944.873C639.788 946.213 639.046 947.564 638.016 948.927L631.343 946.337L630.896 945.419C632.724 942.873 633.537 941.084 633.335 940.05C633.243 939.577 632.96 939.274 632.488 939.143C632.05 938.96 631.379 938.956 630.475 939.132C628.881 939.442 627.437 940.059 626.142 940.981C624.89 941.895 623.939 942.975 623.287 944.219C622.679 945.454 622.497 946.697 622.74 947.945C623.042 949.495 624.082 950.701 625.858 951.561C627.678 952.414 630.042 952.847 632.95 952.862C635.867 952.92 639.099 952.537 642.648 951.712L643.264 952.463L642.811 958.049C638.094 958.386 633.725 958.097 629.703 957.182C625.724 956.258 622.448 954.817 619.877 952.86C617.348 950.894 615.824 948.577 615.303 945.907C614.707 942.85 615.546 940.273 617.819 938.177C616.335 937.215 615.118 936.133 614.169 934.933C613.255 933.68 612.667 932.387 612.407 931.052C612.063 929.287 612.44 927.895 613.537 926.877C614.635 925.859 616.432 925.107 618.93 924.62L627.481 923.09L626.47 918.594L606.577 922.467C605.483 920.982 604.672 919.687 604.144 918.583L604.405 917.862L638.379 911.247L638.855 911.624L640.917 914.977L640.809 915.802L635.707 916.796C635.061 916.921 634.634 917.139 634.426 917.447C634.209 917.713 634.164 918.169 634.29 918.814L635.491 926.692L634.906 927.476L624.38 929.191Z" fill="black"/>
<path d="M666.243 908.634L662.948 909.555C661.807 909.873 661.036 910.293 660.636 910.815C660.235 911.337 660.146 912.159 660.369 913.281C660.819 915.706 661.418 918.659 662.164 922.14C662.94 925.567 663.636 928.379 664.25 930.575L669.047 945.769L668.157 946.496L660.31 945.067C658.615 936.568 657.171 930.184 655.978 925.917C654.997 922.411 653.581 918.001 651.73 912.688L646.28 914.211C645.117 912.987 644.205 911.761 643.543 910.534L643.746 909.794L652.112 907.457C650.113 904.873 647.779 903.043 645.109 901.966C642.47 900.836 639.946 900.608 637.538 901.28C636.27 901.634 635.397 902.175 634.916 902.901C634.436 903.627 634.32 904.434 634.569 905.321C634.829 906.25 635.394 907.049 636.264 907.717L636.198 908.214L633.911 909.809C632.559 909.048 631.416 908.137 630.482 907.077C629.536 905.975 628.903 904.854 628.584 903.713C628.159 902.192 628.338 900.798 629.123 899.532C629.865 898.277 631.229 897.372 633.215 896.817C635.623 896.145 638.29 896.151 641.215 896.837C644.086 897.493 646.875 898.672 649.584 900.375C652.292 902.078 654.571 904.037 656.421 906.254L663.329 904.324L663.834 904.661L666.221 907.82L666.243 908.634Z" fill="black"/>
<path d="M739.477 878.227C738.42 878.761 737.746 879.323 737.455 879.913C737.164 880.503 737.236 881.326 737.673 882.383C738.886 885.359 739.68 887.268 740.057 888.109C741.438 885.592 743.068 883.858 744.947 882.908C746.826 881.958 748.992 881.624 751.447 881.906C753.94 882.169 756.26 882.962 758.405 884.286C760.531 885.57 762.09 887.191 763.081 889.148C764.211 891.378 764.498 893.936 763.944 896.822C763.409 899.649 762.206 902.323 760.335 904.842L759.629 905.051L753.227 902.169L752.87 901.318C754.466 898.741 755.454 896.225 755.834 893.772C756.194 891.279 755.918 889.132 755.006 887.332C754.511 886.354 753.968 885.768 753.378 885.575C752.769 885.342 752.014 885.454 751.114 885.909C749.626 886.662 748.328 887.982 747.219 889.87C746.09 891.719 745.023 894.078 744.017 896.946L744.85 898.59L752.515 912.558L751.784 913.444L743.807 913.57L740.411 905.554C739.384 908.188 737.892 909.999 735.935 910.989C733.704 912.118 731.254 912.62 728.584 912.495C725.954 912.351 723.477 911.588 721.155 910.206C718.871 908.805 717.115 906.891 715.886 904.465C714.499 901.725 714.28 899.157 715.229 896.759C716.178 894.362 718.023 892.47 720.763 891.084C722.486 890.213 724.377 889.674 726.436 889.468C728.476 889.223 730.566 889.321 732.707 889.762C731.776 888.021 730.568 885.928 729.084 883.483L707.241 894.532C705.862 893.558 704.729 892.533 703.84 891.459L703.895 890.693L754.158 865.27L754.719 865.503L757.676 868.137L757.797 868.96L739.477 878.227ZM730.329 908.368C731.66 907.695 732.782 906.414 733.695 904.527C734.647 902.62 735.566 900.066 736.452 896.865L735.828 895.632L734.579 893.166C731.613 892.553 729.092 892.771 727.017 893.82C725.021 894.83 723.773 896.346 723.273 898.369C722.773 900.391 723.147 902.635 724.396 905.101C726.081 908.427 728.059 909.516 730.329 908.368Z" fill="black"/>
<path d="M795.574 843.019L792.74 844.936C791.759 845.599 791.161 846.242 790.947 846.864C790.732 847.486 790.908 848.293 791.475 849.287C792.671 851.444 794.175 854.054 795.986 857.119C797.809 860.123 799.36 862.569 800.639 864.458L810.006 877.347L809.392 878.318L801.495 879.45C799.424 875.766 797.305 872.168 795.138 868.656C791.975 870.636 788.468 872.929 784.617 875.534L788.093 881.604L786.413 884.17C781.204 884.145 776.413 883.017 772.039 880.785L771.476 878.545C772.453 877.407 773.959 876.07 775.993 874.536C772.966 870.069 769.956 866.015 766.96 862.374L760.31 866.872C758.746 865.971 757.492 865.098 756.549 864.253L756.507 863.487L791.444 839.854L792.029 840.014L795.295 842.254L795.574 843.019ZM791.316 862.662C788.88 859.066 786.157 855.32 783.147 851.424L776.225 856.107C775.244 856.77 774.671 857.449 774.506 858.144C774.377 858.814 774.626 859.651 775.254 860.656L781.533 870.63C784.355 868.773 787.924 866.571 792.238 864.024L791.316 862.662Z" fill="black"/>
<path d="M814.698 827.07L812.042 829.227C811.122 829.973 810.583 830.666 810.423 831.304C810.264 831.942 810.51 832.731 811.161 833.672C812.541 835.716 814.266 838.186 816.338 841.081C818.416 843.914 820.174 846.216 821.613 847.986L832.069 860.009L831.542 861.03L823.773 862.845C818.832 855.726 814.964 850.447 812.168 847.009C809.871 844.184 806.815 840.704 803 836.569L798.607 840.136C797.053 839.476 795.728 838.716 794.632 837.854L794.523 837.095L810.308 824.278L810.905 824.386L814.353 826.333L814.698 827.07Z" fill="black"/>
<path d="M869.397 772.947L867.021 775.409C866.198 776.261 865.747 777.014 865.665 777.666C865.584 778.319 865.923 779.073 866.684 779.927C868.3 781.79 870.312 784.033 872.718 786.657C875.123 789.218 877.147 791.291 878.789 792.874L890.621 803.545L890.222 804.622L882.729 807.363C876.964 800.893 872.486 796.12 869.296 793.045C866.674 790.519 863.22 787.433 858.933 783.789L853.266 789.661C852.444 790.513 851.992 791.265 851.911 791.918C851.829 792.571 852.169 793.325 852.929 794.179C854.546 796.042 856.557 798.285 858.963 800.908C861.369 803.47 863.392 805.542 865.035 807.125L876.866 817.797L876.467 818.874L868.975 821.615C864.605 816.794 861.502 813.407 859.667 811.456C859.313 812.517 858.665 813.536 857.72 814.515C856.927 815.274 855.499 816.09 853.435 816.965C854.717 817.469 855.847 818.193 856.826 819.137C858.911 821.146 859.885 823.516 859.748 826.248C859.61 828.918 858.414 831.42 856.16 833.756C853.388 836.629 849.97 838.148 845.908 838.315C841.845 838.481 837.357 837.446 832.444 835.209L832.158 834.842L833.208 831.101L833.856 830.904C841.555 834.486 846.928 834.699 849.975 831.542C851.437 830.027 852.134 828.262 852.067 826.247C851.999 824.233 851.192 822.48 849.644 820.988C848.728 820.105 847.772 819.611 846.777 819.505C845.813 819.367 845.011 819.63 844.371 820.293C843.944 820.735 843.476 821.441 842.966 822.411C842.486 823.351 841.8 824.852 840.906 826.915L835.098 824.973L834.855 824.373C836.626 821.084 837.57 818.369 837.687 816.227C837.803 814.085 837.229 812.405 835.966 811.187C835.366 810.609 834.787 810.325 834.228 810.335C833.638 810.314 833.038 810.62 832.429 811.251C830.845 812.893 829.842 816.617 829.419 822.424L828.964 822.991L821.685 822.099C821.915 819.335 822.399 816.969 823.14 815.002C823.88 813.034 824.951 811.325 826.352 809.873C827.814 808.358 829.471 807.273 831.321 806.619C833.202 805.934 835.076 805.76 836.945 806.099C838.843 806.406 840.519 807.259 841.972 808.659C843.836 810.455 844.792 812.718 844.842 815.446C847.784 815.114 849.956 814.221 851.357 812.769C852.332 811.759 852.884 810.524 853.013 809.064C853.172 807.573 852.862 805.904 852.084 804.057C850.033 802.202 847.731 800.197 845.178 798.041L841.248 802.113C839.626 801.646 838.219 801.051 837.026 800.329L836.827 799.588L864.701 770.706L865.307 770.741L868.966 772.257L869.397 772.947ZM836.769 778.422C838.78 776.339 841.238 774.961 844.143 774.288C847.048 773.615 849.999 773.748 852.995 774.686L862.123 777.451L858.422 781.287L850.365 778.548C848.897 778.048 847.652 777.853 846.63 777.965C845.577 778.046 844.669 778.481 843.907 779.27C843.359 779.838 842.816 780.685 842.277 781.812C841.77 782.906 841.161 784.421 840.451 786.357L833.702 783.874L833.318 783.23C834.218 781.477 835.368 779.874 836.769 778.422Z" fill="black"/>
</svg>
