<svg width="810" height="258" viewBox="0 0 810 258" fill="none" xmlns="http://www.w3.org/2000/svg">
<path fill-rule="evenodd" clip-rule="evenodd" d="M638.265 32.5273C641.544 36.824 643.671 39.5678 644.646 40.7588L666.792 40.7587H807.871V59.1353H792.94V169.778L769.203 159.058V100.1C763.588 103.546 757.654 108.523 751.401 115.031C745.275 121.412 740.426 127.729 736.853 133.982L720.964 120.965C721.475 117.647 724.091 113.181 728.813 107.565C715.796 98.8876 705.842 97.9305 698.951 104.694C693.591 110.564 693.527 119.689 698.759 132.068C704.119 144.446 712.223 154.975 723.07 163.653L717.902 170.161C707.692 161.228 697.611 150.572 687.657 138.193C677.703 125.687 672.343 116.562 671.577 110.82C671.067 106.864 673.172 102.206 677.894 96.8458C682.616 91.3583 688.04 86.8917 694.165 83.4461C700.291 80.0005 705.076 78.852 708.522 80.0005C714.392 82.0424 723.134 89.1888 734.747 101.44C739.979 96.4629 745.722 92.124 751.975 88.4231C758.228 84.7223 763.971 82.489 769.203 81.7233V59.1353L671.664 59.1355H657.307V169.97L633.571 159.25V126.325H593.946C593.946 132.833 593.053 138.321 591.266 142.788C589.607 147.254 587.502 150.444 584.949 152.359C582.525 154.145 579.845 155.358 576.909 155.996C573.974 156.506 571.422 156.57 569.253 156.187C567.083 155.804 565.36 155.166 564.084 154.273C555.789 148.658 549.025 142.724 543.793 136.471C542.517 134.939 541.688 132.961 541.305 130.536C540.922 128.112 541.113 125.496 541.879 122.688C542.645 119.881 543.985 117.264 545.899 114.84C547.941 112.287 551.067 110.309 555.279 108.906C559.49 107.374 564.467 106.736 570.21 106.991V59.1355L337.487 59.1354V66.3881C340.637 68.1544 345.21 71.9898 351.205 77.8942C359.628 86.0616 365.307 92.3148 368.242 96.6537C369.263 98.1851 369.773 103.354 369.773 112.159C369.773 120.837 369.582 130.791 369.199 142.021C368.944 153.251 368.88 160.844 369.008 164.8L345.271 159.249L345.463 149.487C335.126 159.823 326.703 164.992 320.195 164.992C314.069 164.864 306.285 159.058 296.841 147.572C287.397 136.087 282.676 127.856 282.676 122.879C282.676 118.923 285.356 115.286 290.715 111.968C296.075 108.65 302.584 106.097 310.241 104.311C318.025 102.396 324.916 100.929 330.914 99.9079C336.912 98.887 342.017 98.1851 346.228 97.8022L346.42 92.6338C346.547 86.5082 343.293 83.1902 336.657 82.6798C330.531 82.2969 317.642 85.0407 297.989 90.911H297.798L297.607 91.1024H297.415H297.224L297.032 91.2938H296.841H296.65L296.458 91.4853H296.267H296.075L295.884 91.6767H295.692H295.501H295.31L295.118 91.8681H294.927H294.735L294.544 92.0595H294.352L284.016 74.64C292.949 72.3429 302.839 70.1735 313.686 68.1316C317.675 67.3896 321.124 66.7908 324.033 66.3353V59.1354L271.637 59.1354L268.838 69.3993C268.357 72.2822 259.176 83.603 252.138 84.4027C239.759 81.5952 231.592 80.4466 227.636 80.9571C221.383 81.7228 216.469 84.7856 212.896 90.1454C209.323 95.3777 208.047 100.418 209.068 105.268C209.323 106.416 212.258 106.289 217.873 104.885C223.488 103.481 229.614 102.077 236.25 100.674C242.886 99.1423 247.161 98.8871 249.075 99.908C257.881 104.502 263.815 110.564 266.878 118.093C269.94 125.623 270.259 132.833 267.835 139.724C265.538 146.488 260.752 152.358 253.478 157.335C246.204 162.312 237.462 164.801 227.253 164.801C218.83 164.801 210.982 162.504 203.708 157.909C196.561 153.188 188.139 146.169 178.44 136.853L181.886 130.344C190.563 136.853 199.752 141.255 209.451 143.553C219.149 145.722 228.146 144.829 236.441 140.873C244.864 136.917 250.479 129.642 253.287 119.05C253.414 118.54 252.84 118.348 251.564 118.476C250.16 118.604 246.65 119.433 241.035 120.965C223.297 125.686 212.003 127.09 207.153 125.176L205.431 124.219C198.412 118.859 192.733 112.989 188.394 106.608C185.204 102.269 183.864 97.6747 184.374 92.8253C185.012 87.9759 186.671 83.5732 189.351 79.6171C192.031 75.5334 196.051 72.2154 201.411 69.6631C206.771 66.9832 212.641 65.6432 219.022 65.6432C220.936 65.6432 223.616 66.0261 227.061 66.7917C230.635 67.5574 235.612 68.8974 241.993 70.8116C248.501 72.5983 252.585 73.683 254.244 74.0658C256.386 70.7486 260.958 63.2492 262.111 59.7897L262.111 59.7894C262.177 59.5932 262.25 59.3744 262.329 59.1354L177.157 59.1353V40.7587L636.317 40.7588C633.451 36.8489 629.889 32.7651 625.631 28.5074C621.165 23.9132 616.953 20.5952 612.997 18.5534C604.702 14.0868 592.898 14.7887 577.584 20.659L563.993 5.34514C570.501 3.30328 577.967 1.8357 586.389 0.942396C594.684 -0.0785315 600.682 -0.269957 604.383 0.368121C606.936 1.0062 609.679 2.28235 612.614 4.19659C615.422 6.11083 618.485 8.91837 621.803 12.6192C625.121 16.1925 627.801 19.1914 629.843 21.6161C631.757 23.9132 634.564 27.5503 638.265 32.5273ZM147.276 59.3093C141.032 56.3711 137.274 48.9853 134.162 42.8685C134.03 42.6093 133.9 42.3523 133.77 42.098C134.025 40.0562 135.939 37.44 139.513 34.2496C143.086 31.0593 145.957 29.2088 148.127 28.6984C154.635 31.6335 159.589 34.9255 162.651 41.051C160.482 46.5385 154.55 55.6084 147.276 59.3093ZM159.804 73.1086V164.8L135.876 159.441V67.7488L159.804 73.1086ZM418.811 61.9818L417.369 80.9571C428.727 70.365 438.681 65.3242 447.231 65.8347C451.315 66.0899 458.461 71.1945 468.671 81.1486C479.008 90.975 484.495 97.6748 485.133 101.248C485.643 104.566 485.899 125.75 485.899 164.801L462.162 159.441C462.928 115.669 462.609 92.5064 461.205 89.954C458.908 85.6151 455.08 84.3389 449.72 86.1256C444.487 87.7846 439 90.8474 433.257 95.3139C427.642 99.7804 422.346 105.013 417.369 111.011V164.801L392.484 159.441L393.926 61.9818L418.811 61.9818ZM303.924 140.107C305.072 141.893 307.242 143.042 310.432 143.552C313.622 144.063 318.408 143.233 324.789 141.064C331.297 138.767 338.316 134.811 345.845 129.196L346.037 112.35C312.346 122.177 298.309 131.429 303.924 140.107ZM32.1821 100.673L31.9907 39.6091L5.57427 31.7608V134.172L5 134.938L5.57427 135.129V159.249L32.3736 164.8L32.1821 137.235L58.5986 104.119L94.969 159.249L119.854 164.8L69.7011 90.1449L111.623 37.3121L86.7378 31.7608L32.1821 100.673ZM593.946 107.566L633.571 107.374V59.1355H593.946V107.566ZM570.018 125.559C566.062 125.049 562.872 125.496 560.447 126.899C558.022 128.303 556.746 129.962 556.619 131.876C556.619 133.791 557.129 135.577 558.15 137.236C559.298 138.13 560.766 138.768 562.553 139.15C564.339 139.406 565.998 138.321 567.53 135.896C569.189 133.472 570.018 130.026 570.018 125.559Z" fill="#317F2F"/>
<path d="M213.446 219.079H211.305C210.564 219.079 210.028 219.202 209.699 219.449C209.369 219.696 209.177 220.177 209.122 220.891C208.985 222.428 208.848 224.309 208.71 226.533C208.6 228.729 208.546 230.541 208.546 231.969L208.875 241.936L208.216 242.224L203.727 240.041C204.002 236.335 204.18 233.617 204.262 231.887C203.164 232.299 202.203 232.505 201.38 232.505C199.32 232.505 196.616 231.763 193.266 230.281C192.635 230.885 192.003 231.42 191.372 231.887C193.651 234.44 196.108 236.678 198.744 238.6V239.382L195.82 241.771C191.427 237.405 187.899 232.71 185.236 227.686L186.224 225.915C187.157 225.86 187.816 225.833 188.201 225.833C188.97 225.833 189.725 225.874 190.466 225.956C192.113 224.227 192.937 222.703 192.937 221.385C192.937 220.671 192.758 220.108 192.401 219.696C192.045 219.285 191.564 219.079 190.96 219.079H184.082C183.588 218.008 183.245 217.116 183.053 216.402L183.3 215.99H212.417L212.664 216.278L213.57 218.584L213.446 219.079ZM204.304 225.709C204.249 223.76 204.153 221.55 204.015 219.079H195.449C196.383 220.671 196.849 222.195 196.849 223.65C196.849 225.215 196.259 226.766 195.078 228.304C196.341 228.771 197.495 229.004 198.538 229.004C200.762 229.004 202.684 227.906 204.304 225.709ZM223.713 225.339C222.615 225.339 221.777 225.531 221.201 225.915C220.624 226.272 220.336 226.807 220.336 227.521C220.336 228.043 220.501 228.578 220.83 229.127C221.764 228.88 222.807 228.757 223.96 228.757C225.498 228.757 226.898 229.018 228.161 229.539C229.424 230.061 230.412 230.775 231.126 231.681C231.867 232.559 232.238 233.534 232.238 234.605C232.238 235.346 232.018 236.101 231.579 236.87C231.14 237.639 230.522 238.38 229.726 239.094L225.937 236.705L225.772 236.088C227.2 234.742 227.914 233.74 227.914 233.081C227.914 232.779 227.777 232.559 227.502 232.422C227.255 232.257 226.843 232.175 226.266 232.175C225.251 232.175 224.29 232.381 223.384 232.793C222.505 233.205 221.791 233.754 221.242 234.44C220.72 235.127 220.46 235.868 220.46 236.664C220.46 237.653 220.954 238.517 221.942 239.259C222.958 240 224.358 240.549 226.143 240.906C227.928 241.29 229.959 241.441 232.238 241.359L232.526 241.894L231.579 245.272C228.641 244.915 225.992 244.214 223.631 243.171C221.297 242.128 219.457 240.851 218.112 239.341C216.794 237.831 216.135 236.225 216.135 234.523C216.135 232.573 216.959 231.091 218.606 230.075C217.81 229.306 217.192 228.496 216.753 227.645C216.341 226.766 216.135 225.901 216.135 225.05C216.135 223.925 216.533 223.115 217.33 222.62C218.126 222.126 219.32 221.879 220.913 221.879L226.349 221.962L226.266 219.079H213.582C213.088 218.035 212.744 217.143 212.552 216.402L212.799 215.99H234.462L234.709 216.278L235.574 218.584L235.409 219.079H232.156C231.744 219.079 231.456 219.161 231.291 219.326C231.126 219.463 231.044 219.738 231.044 220.149L230.838 225.133L230.385 225.544L223.713 225.339ZM248.533 219.079H246.392C245.65 219.079 245.115 219.202 244.786 219.449C244.456 219.696 244.264 220.177 244.209 220.891C244.072 222.428 243.935 224.309 243.797 226.533C243.687 228.729 243.632 230.541 243.632 231.969L243.962 241.936L243.303 242.224L238.814 240.041C239.226 234.632 239.432 230.541 239.432 227.768C239.432 225.49 239.322 222.593 239.102 219.079H235.56C235.066 218.145 234.723 217.253 234.531 216.402L234.778 215.99H240.214C239.445 214.095 238.347 212.599 236.92 211.501C235.519 210.375 234.037 209.812 232.472 209.812C231.648 209.812 231.03 209.991 230.618 210.348C230.207 210.705 230.001 211.171 230.001 211.748C230.001 212.352 230.207 212.929 230.618 213.478L230.495 213.766L228.848 214.343C228.161 213.656 227.626 212.915 227.241 212.119C226.857 211.295 226.665 210.512 226.665 209.771C226.665 208.783 227.008 207.973 227.694 207.341C228.353 206.71 229.328 206.394 230.618 206.394C232.183 206.394 233.79 206.847 235.437 207.753C237.057 208.632 238.539 209.812 239.885 211.295C241.23 212.778 242.273 214.343 243.015 215.99H247.504L247.751 216.278L248.657 218.584L248.533 219.079ZM274.554 219.079C275.35 220.012 275.748 221.042 275.748 222.167C275.748 223.073 275.515 223.925 275.048 224.721C274.581 225.49 273.895 226.162 272.989 226.739C274.416 227.508 275.515 228.496 276.283 229.704C277.08 230.885 277.478 232.175 277.478 233.575C277.478 235.47 276.819 237.021 275.501 238.229C274.183 239.437 272.467 240.041 270.353 240.041C267.827 240.041 265.589 239.121 263.64 237.282C261.718 235.442 260.222 232.738 259.151 229.169L259.192 228.839L261.54 227.521L261.952 227.768C262.665 230.404 263.585 232.408 264.711 233.781C265.837 235.127 267.141 235.799 268.623 235.799C269.886 235.799 270.943 235.346 271.794 234.44C272.673 233.534 273.112 232.422 273.112 231.104C273.112 230.336 272.906 229.732 272.495 229.292C272.083 228.825 271.534 228.592 270.847 228.592C270.49 228.592 269.955 228.702 269.241 228.922C268.555 229.141 267.758 229.416 266.852 229.745L265.205 225.874L265.37 225.462C267.704 224.721 269.31 224.021 270.188 223.362C271.067 222.675 271.506 221.838 271.506 220.85C271.506 220.246 271.341 219.806 271.012 219.532C270.71 219.23 270.216 219.079 269.529 219.079H258.039C257.545 218.145 257.202 217.253 257.009 216.402L257.257 215.99H279.413L279.619 216.278L280.567 218.584L280.402 219.079H274.554ZM306.282 219.079H304.141C303.399 219.079 302.864 219.202 302.535 219.449C302.205 219.696 302.013 220.177 301.958 220.891C301.821 222.428 301.683 224.309 301.546 226.533C301.436 228.729 301.381 230.541 301.381 231.969L301.711 241.936L301.052 242.224L296.563 240.041C296.975 234.632 297.181 230.541 297.181 227.768C297.181 225.49 297.071 222.593 296.851 219.079H292.28C291.648 219.079 291.195 219.23 290.921 219.532C290.646 219.806 290.495 220.273 290.468 220.932L290.138 229.375C290.056 231.379 289.891 233.081 289.644 234.481L288.079 235.223C286.459 234.262 285.1 233.301 284.002 232.34C282.931 231.351 282.011 230.267 281.243 229.086L281.943 227.439L285.896 227.315C285.869 224.625 285.704 221.879 285.402 219.079H280.542C280.048 218.145 279.705 217.253 279.513 216.402L279.76 215.99H305.253L305.5 216.278L306.406 218.584L306.282 219.079ZM319.395 219.079H317.254C316.512 219.079 315.977 219.202 315.647 219.449C315.318 219.696 315.126 220.177 315.071 220.891C314.934 222.428 314.796 224.309 314.659 226.533C314.549 228.729 314.494 230.541 314.494 231.969L314.824 241.936L314.165 242.224L309.676 240.041C310.088 234.632 310.294 230.541 310.294 227.768C310.294 225.49 310.184 222.593 309.964 219.079H306.422C305.928 218.145 305.585 217.253 305.393 216.402L305.64 215.99H318.366L318.613 216.278L319.519 218.584L319.395 219.079ZM365.103 219.079H362.961C362.22 219.079 361.685 219.202 361.355 219.449C361.026 219.696 360.834 220.177 360.779 220.891C360.641 222.428 360.504 224.309 360.367 226.533C360.257 228.729 360.202 230.541 360.202 231.969L360.532 241.936L359.873 242.224L355.384 240.041C355.796 234.632 356.001 230.541 356.001 227.768C356.001 225.49 355.892 222.593 355.672 219.079H350.565C349.824 219.079 349.288 219.202 348.959 219.449C348.63 219.696 348.437 220.177 348.382 220.891C348.245 222.428 348.108 224.309 347.971 226.533C347.861 228.729 347.806 230.541 347.806 231.969L348.135 241.936L347.476 242.224L342.987 240.041C343.262 235.978 343.44 233.109 343.523 231.434C342.891 231.736 342.15 231.887 341.299 231.887C340.612 231.859 339.624 231.571 338.334 231.022C338.663 231.818 338.828 232.642 338.828 233.493C338.828 235.305 338.183 236.774 336.892 237.9C335.629 238.998 333.982 239.547 331.95 239.547C329.452 239.547 327.283 238.668 325.443 236.911C323.604 235.154 322.121 232.683 320.995 229.498L321.036 229.21L323.178 228.057L323.549 228.263C325.278 233.287 327.516 235.799 330.262 235.799C331.579 235.799 332.678 235.346 333.556 234.44C334.435 233.534 334.874 232.408 334.874 231.063C334.874 230.267 334.682 229.622 334.298 229.127C333.941 228.633 333.474 228.386 332.897 228.386C332.513 228.386 331.991 228.482 331.332 228.674C330.701 228.867 329.726 229.21 328.408 229.704L326.761 226.245L326.926 225.874C329.177 225.242 330.811 224.487 331.827 223.609C332.842 222.73 333.35 221.742 333.35 220.644C333.35 220.122 333.227 219.738 332.98 219.49C332.733 219.216 332.335 219.079 331.785 219.079C330.358 219.079 328.244 220.246 325.443 222.579L324.99 222.62L322.231 218.955C323.576 217.857 324.853 217.047 326.061 216.525C327.269 216.004 328.504 215.743 329.767 215.743C331.085 215.743 332.293 216.017 333.392 216.566C334.517 217.116 335.41 217.884 336.068 218.873C336.755 219.861 337.098 220.987 337.098 222.25C337.098 223.87 336.494 225.284 335.286 226.492C336.714 227.672 338.059 228.263 339.322 228.263C340.201 228.263 340.997 227.974 341.711 227.398C342.452 226.821 343.07 225.956 343.564 224.803C343.509 223.073 343.413 221.165 343.276 219.079H339.734C339.24 218.145 338.896 217.253 338.704 216.402L338.951 215.99H364.073L364.321 216.278L365.227 218.584L365.103 219.079ZM348.465 206.765C350.277 206.765 351.965 207.273 353.53 208.288C355.095 209.304 356.317 210.691 357.196 212.448L359.914 217.761H356.578L354.313 212.942C353.901 212.064 353.448 211.418 352.954 211.007C352.46 210.567 351.869 210.348 351.183 210.348C350.689 210.348 350.071 210.471 349.33 210.718C348.616 210.965 347.669 211.35 346.488 211.871L344.676 207.753L344.799 207.3C345.98 206.943 347.202 206.765 348.465 206.765ZM460.879 219.079H458.737C457.996 219.079 457.461 219.202 457.131 219.449C456.802 219.696 456.609 220.177 456.555 220.891C456.417 222.428 456.28 224.309 456.143 226.533C456.033 228.729 455.978 230.541 455.978 231.969L456.307 241.936L455.648 242.224L451.159 240.041C451.434 236.335 451.612 233.617 451.695 231.887C450.597 232.299 449.636 232.505 448.812 232.505C446.753 232.505 444.048 231.763 440.699 230.281C440.067 230.885 439.436 231.42 438.804 231.887C441.083 234.44 443.54 236.678 446.176 238.6V239.382L443.252 241.771C438.859 237.405 435.331 232.71 432.668 227.686L433.656 225.915C434.59 225.86 435.249 225.833 435.633 225.833C436.402 225.833 437.157 225.874 437.898 225.956C439.546 224.227 440.369 222.703 440.369 221.385C440.369 220.671 440.191 220.108 439.834 219.696C439.477 219.285 438.996 219.079 438.392 219.079H431.515C431.021 218.008 430.677 217.116 430.485 216.402L430.732 215.99H459.849L460.096 216.278L461.002 218.584L460.879 219.079ZM451.736 225.709C451.681 223.76 451.585 221.55 451.448 219.079H442.881C443.815 220.671 444.282 222.195 444.282 223.65C444.282 225.215 443.691 226.766 442.511 228.304C443.774 228.771 444.927 229.004 445.97 229.004C448.194 229.004 450.116 227.906 451.736 225.709ZM471.145 225.339C470.047 225.339 469.21 225.531 468.633 225.915C468.057 226.272 467.768 226.807 467.768 227.521C467.768 228.043 467.933 228.578 468.263 229.127C469.196 228.88 470.239 228.757 471.393 228.757C472.93 228.757 474.33 229.018 475.593 229.539C476.856 230.061 477.845 230.775 478.559 231.681C479.3 232.559 479.671 233.534 479.671 234.605C479.671 235.346 479.451 236.101 479.012 236.87C478.572 237.639 477.955 238.38 477.158 239.094L473.369 236.705L473.205 236.088C474.632 234.742 475.346 233.74 475.346 233.081C475.346 232.779 475.209 232.559 474.934 232.422C474.687 232.257 474.275 232.175 473.699 232.175C472.683 232.175 471.722 232.381 470.816 232.793C469.937 233.205 469.224 233.754 468.674 234.44C468.153 235.127 467.892 235.868 467.892 236.664C467.892 237.653 468.386 238.517 469.375 239.259C470.39 240 471.791 240.549 473.575 240.906C475.36 241.29 477.392 241.441 479.671 241.359L479.959 241.894L479.012 245.272C476.074 244.915 473.424 244.214 471.063 243.171C468.729 242.128 466.89 240.851 465.544 239.341C464.227 237.831 463.568 236.225 463.568 234.523C463.568 232.573 464.391 231.091 466.039 230.075C465.242 229.306 464.625 228.496 464.185 227.645C463.774 226.766 463.568 225.901 463.568 225.05C463.568 223.925 463.966 223.115 464.762 222.62C465.558 222.126 466.753 221.879 468.345 221.879L473.781 221.962L473.699 219.079H461.014C460.52 218.035 460.177 217.143 459.985 216.402L460.232 215.99H481.894L482.142 216.278L483.006 218.584L482.842 219.079H479.588C479.176 219.079 478.888 219.161 478.723 219.326C478.559 219.463 478.476 219.738 478.476 220.149L478.27 225.133L477.817 225.544L471.145 225.339ZM495.966 219.079H493.824C493.083 219.079 492.548 219.202 492.218 219.449C491.889 219.696 491.696 220.177 491.641 220.891C491.504 222.428 491.367 224.309 491.23 226.533C491.12 228.729 491.065 230.541 491.065 231.969L491.394 241.936L490.735 242.224L486.246 240.041C486.658 234.632 486.864 230.541 486.864 227.768C486.864 225.49 486.754 222.593 486.535 219.079H482.993C482.499 218.145 482.155 217.253 481.963 216.402L482.21 215.99H487.647C486.878 214.095 485.78 212.599 484.352 211.501C482.952 210.375 481.469 209.812 479.904 209.812C479.08 209.812 478.463 209.991 478.051 210.348C477.639 210.705 477.433 211.171 477.433 211.748C477.433 212.352 477.639 212.929 478.051 213.478L477.927 213.766L476.28 214.343C475.594 213.656 475.058 212.915 474.674 212.119C474.289 211.295 474.097 210.512 474.097 209.771C474.097 208.783 474.44 207.973 475.127 207.341C475.786 206.71 476.76 206.394 478.051 206.394C479.616 206.394 481.222 206.847 482.869 207.753C484.489 208.632 485.972 209.812 487.317 211.295C488.663 212.778 489.706 214.343 490.447 215.99H494.936L495.183 216.278L496.089 218.584L495.966 219.079ZM528.164 219.079C527.422 219.079 526.887 219.202 526.558 219.449C526.228 219.696 526.036 220.177 525.981 220.891C525.816 222.895 525.72 224.185 525.693 224.762C527.175 223.746 528.576 223.238 529.893 223.238C531.211 223.238 532.516 223.664 533.806 224.515C535.124 225.366 536.195 226.464 537.018 227.81C537.842 229.127 538.254 230.473 538.254 231.846C538.254 233.411 537.691 234.921 536.565 236.376C535.467 237.804 534.039 238.957 532.282 239.835L531.829 239.753L529.07 236.335L529.111 235.758C530.731 234.77 531.994 233.644 532.9 232.381C533.806 231.091 534.259 229.814 534.259 228.551C534.259 227.865 534.122 227.384 533.847 227.109C533.573 226.807 533.12 226.656 532.488 226.656C531.445 226.656 530.346 227.027 529.193 227.768C528.04 228.482 526.777 229.498 525.404 230.816V231.969L525.734 241.936L525.075 242.224L520.586 240.041L520.957 234.605C519.639 235.786 518.293 236.376 516.921 236.376C515.356 236.376 513.846 235.964 512.39 235.14C510.963 234.317 509.796 233.191 508.89 231.763C508.011 230.336 507.572 228.771 507.572 227.068C507.572 225.146 508.176 223.65 509.384 222.579C510.592 221.508 512.157 220.973 514.079 220.973C515.287 220.973 516.495 221.206 517.703 221.673C518.911 222.113 520.051 222.758 521.121 223.609C521.094 222.373 521.012 220.863 520.874 219.079H505.554C505.06 218.145 504.716 217.253 504.524 216.402L504.771 215.99H540.025L540.272 216.278L541.178 218.584L541.013 219.079H528.164ZM514.532 233.328C515.465 233.328 516.454 232.93 517.497 232.134C518.568 231.338 519.803 230.171 521.204 228.633V227.768V226.039C519.721 224.858 518.252 224.268 516.797 224.268C515.397 224.268 514.271 224.762 513.42 225.75C512.569 226.739 512.143 228.098 512.143 229.828C512.143 232.161 512.939 233.328 514.532 233.328ZM567.812 219.079H565.671C564.93 219.079 564.394 219.202 564.065 219.449C563.735 219.696 563.543 220.177 563.488 220.891C563.351 222.428 563.214 224.309 563.076 226.533C562.967 228.729 562.912 230.541 562.912 231.969L563.241 241.936L562.582 242.224L558.093 240.041C558.313 237.405 558.477 234.797 558.587 232.216C556.254 232.134 553.632 232.093 550.721 232.093L550.392 236.458L548.621 237.2C545.93 235.36 543.844 233.095 542.361 230.404L542.855 229.045C543.761 228.798 545.01 228.633 546.603 228.551C546.603 225.174 546.466 222.016 546.191 219.079H541.167C540.672 218.063 540.329 217.17 540.137 216.402L540.384 215.99H566.783L567.03 216.278L567.936 218.584L567.812 219.079ZM558.711 227.768C558.711 225.05 558.615 222.154 558.423 219.079H553.192C552.451 219.079 551.916 219.23 551.586 219.532C551.284 219.834 551.119 220.355 551.092 221.097L550.845 228.469C552.959 228.496 555.581 228.606 558.711 228.798V227.768ZM580.904 219.079H578.763C578.021 219.079 577.486 219.202 577.156 219.449C576.827 219.696 576.635 220.177 576.58 220.891C576.442 222.428 576.305 224.309 576.168 226.533C576.058 228.729 576.003 230.541 576.003 231.969L576.333 241.936L575.674 242.224L571.185 240.041C571.597 234.632 571.802 230.541 571.802 227.768C571.802 225.49 571.693 222.593 571.473 219.079H567.931C567.437 218.145 567.094 217.253 566.902 216.402L567.149 215.99H579.874L580.122 216.278L581.028 218.584L580.904 219.079ZM626.612 219.079H624.47C623.729 219.079 623.194 219.202 622.864 219.449C622.535 219.696 622.343 220.177 622.288 220.891C622.15 222.428 622.013 224.309 621.876 226.533C621.766 228.729 621.711 230.541 621.711 231.969L622.041 241.936L621.382 242.224L616.893 240.041C617.304 234.632 617.51 230.541 617.51 227.768C617.51 225.49 617.401 222.593 617.181 219.079H612.074C611.333 219.079 610.797 219.202 610.468 219.449C610.138 219.696 609.946 220.177 609.891 220.891C609.754 222.428 609.617 224.309 609.48 226.533C609.37 228.729 609.315 230.541 609.315 231.969L609.644 241.936L608.985 242.224L604.496 240.041C604.771 235.978 604.949 233.109 605.032 231.434C604.4 231.736 603.659 231.887 602.808 231.887C602.121 231.859 601.133 231.571 599.842 231.022C600.172 231.818 600.337 232.642 600.337 233.493C600.337 235.305 599.691 236.774 598.401 237.9C597.138 238.998 595.491 239.547 593.459 239.547C590.961 239.547 588.792 238.668 586.952 236.911C585.112 235.154 583.63 232.683 582.504 229.498L582.545 229.21L584.687 228.057L585.058 228.263C586.787 233.287 589.025 235.799 591.77 235.799C593.088 235.799 594.187 235.346 595.065 234.44C595.944 233.534 596.383 232.408 596.383 231.063C596.383 230.267 596.191 229.622 595.806 229.127C595.45 228.633 594.983 228.386 594.406 228.386C594.022 228.386 593.5 228.482 592.841 228.674C592.21 228.867 591.235 229.21 589.917 229.704L588.27 226.245L588.435 225.874C590.686 225.242 592.32 224.487 593.335 223.609C594.351 222.73 594.859 221.742 594.859 220.644C594.859 220.122 594.736 219.738 594.489 219.49C594.242 219.216 593.843 219.079 593.294 219.079C591.867 219.079 589.752 220.246 586.952 222.579L586.499 222.62L583.74 218.955C585.085 217.857 586.362 217.047 587.57 216.525C588.778 216.004 590.013 215.743 591.276 215.743C592.594 215.743 593.802 216.017 594.9 216.566C596.026 217.116 596.918 217.884 597.577 218.873C598.264 219.861 598.607 220.987 598.607 222.25C598.607 223.87 598.003 225.284 596.795 226.492C598.223 227.672 599.568 228.263 600.831 228.263C601.709 228.263 602.506 227.974 603.22 227.398C603.961 226.821 604.579 225.956 605.073 224.803C605.018 223.073 604.922 221.165 604.785 219.079H601.243C600.749 218.145 600.405 217.253 600.213 216.402L600.46 215.99H625.582L625.829 216.278L626.736 218.584L626.612 219.079ZM609.974 206.765C611.786 206.765 613.474 207.273 615.039 208.288C616.604 209.304 617.826 210.691 618.705 212.448L621.423 217.761H618.087L615.822 212.942C615.41 212.064 614.957 211.418 614.463 211.007C613.969 210.567 613.378 210.348 612.692 210.348C612.198 210.348 611.58 210.471 610.839 210.718C610.125 210.965 609.177 211.35 607.997 211.871L606.185 207.753L606.308 207.3C607.489 206.943 608.711 206.765 609.974 206.765Z" fill="black"/>
<path d="M169 227L2 227" stroke="black" stroke-width="2.88288" stroke-linecap="round"/>
<path d="M808 227L641 227" stroke="black" stroke-width="2.88288" stroke-linecap="round"/>
<path fill-rule="evenodd" clip-rule="evenodd" d="M386.922 220.731C386.462 220.525 385.94 220.509 385.469 220.688C384.997 220.867 384.617 221.226 384.41 221.685L380.3 230.811C380.094 231.27 380.078 231.792 380.256 232.263C380.434 232.734 380.792 233.115 381.25 233.323L384.081 234.598C384.309 234.7 384.554 234.757 384.804 234.765C385.053 234.773 385.302 234.732 385.535 234.643C385.769 234.555 385.982 234.422 386.164 234.251C386.346 234.08 386.492 233.875 386.595 233.648L390.705 224.52C390.912 224.061 390.928 223.539 390.75 223.068C390.572 222.597 390.214 222.216 389.755 222.008L386.922 220.731ZM383.553 231.995C383.708 232.065 383.875 232.103 384.045 232.108C384.215 232.114 384.384 232.085 384.543 232.025C384.702 231.965 384.848 231.874 384.972 231.758C385.096 231.641 385.195 231.502 385.265 231.347C385.335 231.192 385.374 231.025 385.379 230.855C385.384 230.685 385.356 230.516 385.296 230.357C385.236 230.198 385.145 230.052 385.028 229.928C384.912 229.804 384.772 229.705 384.617 229.635C384.304 229.494 383.948 229.483 383.627 229.604C383.306 229.726 383.046 229.97 382.905 230.283C382.764 230.596 382.753 230.952 382.875 231.273C382.996 231.594 383.24 231.854 383.553 231.995Z" fill="black"/>
<path fill-rule="evenodd" clip-rule="evenodd" d="M412.12 223.394H412.135C412.26 223.384 412.381 223.348 412.492 223.291C412.602 223.233 412.701 223.154 412.781 223.059C412.861 222.963 412.922 222.852 412.96 222.733C412.997 222.614 413.011 222.489 413 222.365C412.989 222.24 412.954 222.119 412.896 222.009C412.839 221.898 412.76 221.799 412.664 221.719C412.569 221.639 412.458 221.578 412.339 221.541C412.22 221.503 412.095 221.489 411.97 221.5H411.955L411.906 221.506L411.721 221.525C410.759 221.616 405.95 222.135 404.992 222.262C403.293 222.484 401.186 222.826 399.808 223.286C399.138 223.508 398.431 223.939 397.756 224.433C397.03 224.973 396.336 225.556 395.678 226.177C394.471 227.316 393.317 228.511 392.222 229.757C391.426 230.658 391.241 232.094 392.176 233.112C392.784 233.77 393.734 234.602 394.965 234.974C396.252 235.36 397.734 235.21 399.248 234.085L401.146 232.86C401.157 232.852 401.168 232.845 401.18 232.839C401.452 233.004 401.83 233.289 402.282 233.667C402.776 234.081 403.312 234.57 403.812 235.039C404.379 235.574 404.936 236.118 405.484 236.673L405.588 236.781L405.615 236.808L405.624 236.817L405.736 236.931L405.879 237.006C406.645 237.386 407.486 237.249 408.14 237.028C408.82 236.8 409.496 236.413 410.072 236.031C410.793 235.546 414.137 232.925 414.775 232.335L414.809 232.305L414.819 232.295L414.821 232.293C414.821 232.293 414.654 231.688 414 231L413.485 231.663L412.5 232.5L405.624 236.817L406.589 235.951L406.08 234.589C405.762 234.275 405.44 233.965 405.115 233.658C404.602 233.175 404.036 232.66 403.5 232.214C402.981 231.777 402.442 231.363 401.991 231.116C401.243 230.705 400.509 231.009 400.114 231.266L398.161 232.527L398.134 232.546C397.08 233.337 396.214 233.367 395.512 233.156C394.752 232.928 394.078 232.373 393.574 231.826C393.417 231.655 393.371 231.326 393.645 231.017C394.7 229.816 395.81 228.666 396.972 227.568C397.62 226.966 398.269 226.409 398.875 225.967C399.495 225.514 400.015 225.22 400.409 225.089C401.594 224.694 403.534 224.369 405.242 224.143C406.176 224.02 410.962 223.504 411.9 223.415L412.077 223.398L412.12 223.394Z" fill="black"/>
<path d="M406.839 235.337C406.591 235.085 406.341 234.836 406.089 234.588L406.598 235.95L405.633 236.819L410.398 235L413.605 231.625L414 231L413.635 230.876L413.629 230.88L413.603 230.905L413.5 231C412.965 231.482 409.625 234.047 409.028 234.449C408.515 234.791 407.996 235.076 407.54 235.228C407.187 235.348 406.967 235.358 406.839 235.337Z" fill="black"/>
<path fill-rule="evenodd" clip-rule="evenodd" d="M389.592 225.63L389.218 224.756L388.844 223.882L388.92 223.852L389.135 223.76C390.188 223.313 391.246 222.876 392.308 222.449C393.17 222.101 394.039 221.77 394.914 221.456C395.3 221.319 395.659 221.201 395.959 221.116C396.218 221.04 396.548 220.956 396.818 220.956C397.065 220.956 397.325 221.013 397.54 221.07C397.772 221.133 398.027 221.216 398.285 221.311C398.806 221.501 399.393 221.748 399.936 221.988C400.57 222.271 401.198 222.566 401.821 222.873L401.946 222.934L401.98 222.951L401.992 222.957C402.217 223.069 402.389 223.267 402.469 223.506C402.548 223.745 402.53 224.006 402.417 224.232C402.305 224.457 402.107 224.629 401.868 224.708C401.629 224.788 401.368 224.77 401.143 224.657L401.133 224.652L401.103 224.636L400.985 224.579C400.383 224.283 399.775 223.998 399.163 223.724C398.661 223.499 398.152 223.289 397.637 223.097C397.444 223.026 397.248 222.962 397.05 222.907C396.976 222.886 396.9 222.869 396.824 222.858L396.807 222.862C396.769 222.867 396.668 222.888 396.48 222.942C396.165 223.034 395.854 223.136 395.545 223.247C394.808 223.508 393.902 223.859 393.014 224.215C391.964 224.635 390.919 225.066 389.877 225.508L389.667 225.598L389.592 225.63ZM388.344 225.13C388.245 224.899 388.242 224.637 388.336 224.404C388.43 224.17 388.612 223.983 388.844 223.884L389.218 224.758L389.592 225.63C389.478 225.679 389.354 225.705 389.229 225.707C389.105 225.709 388.981 225.685 388.865 225.639C388.749 225.593 388.643 225.524 388.554 225.437C388.464 225.349 388.393 225.245 388.344 225.13ZM384.728 232.654C384.814 232.564 384.917 232.491 385.031 232.44C385.145 232.389 385.267 232.361 385.392 232.357C385.517 232.354 385.641 232.375 385.758 232.419C385.874 232.464 385.981 232.531 386.072 232.616L385.418 233.306L384.766 233.998C384.676 233.912 384.603 233.809 384.552 233.695C384.501 233.581 384.473 233.459 384.469 233.334C384.466 233.209 384.487 233.085 384.531 232.968C384.576 232.852 384.643 232.745 384.728 232.654ZM393.411 239.09L398.661 241.058C399.173 241.25 399.73 241.29 400.265 241.175C400.8 241.059 401.29 240.791 401.676 240.404L405.647 236.433C405.826 236.255 406.068 236.155 406.32 236.156C406.572 236.156 406.814 236.256 406.992 236.434C407.17 236.613 407.27 236.855 407.27 237.107C407.269 237.359 407.169 237.601 406.991 237.779L403.02 241.75C402.375 242.394 401.558 242.839 400.667 243.032C399.776 243.225 398.848 243.157 397.994 242.836L392.636 240.828L392.593 240.807C392.302 240.647 392.026 240.461 391.768 240.252C391.46 240.015 391.099 239.72 390.71 239.388C389.837 238.642 388.977 237.883 388.129 237.11C387.093 236.169 386.065 235.219 385.046 234.26L384.839 234.066L384.766 233.998L385.418 233.306L386.072 232.616L386.142 232.683L386.345 232.875C387.357 233.826 388.377 234.768 389.404 235.702C390.278 236.494 391.181 237.298 391.937 237.94C392.317 238.261 392.653 238.535 392.925 238.746C393.176 238.938 393.334 239.044 393.411 239.088" fill="black"/>
</svg>
